<svg width="1219" height="28" viewBox="0 0 1219 28" fill="none" xmlns="http://www.w3.org/2000/svg">
<path d="M0 14.1053C0 18.5236 3.58172 22.1053 8 22.1053C12.4183 22.1053 16 18.5236 16 14.1053C16 9.68707 12.4183 6.10535 8 6.10535C3.58172 6.10535 0 9.68707 0 14.1053ZM1203 14.1053C1203 18.5236 1206.58 22.1053 1211 22.1053C1215.42 22.1053 1219 18.5236 1219 14.1053C1219 9.68707 1215.42 6.10535 1211 6.10535C1206.58 6.10535 1203 9.68707 1203 14.1053ZM8 15.6053H1211V12.6053H8V15.6053Z" fill="#AF80D1"/>
<circle cx="610" cy="14" r="12.5" fill="#AF80D1" stroke="#AF80D1" stroke-width="3"/>
</svg>
