<svg xmlns="http://www.w3.org/2000/svg" viewBox="0 0 1200 85.07"><defs><style>.cls-1{fill:#af80d1;}</style></defs><g id="Layer_2" data-name="Layer 2"><g id="Layer_5" data-name="Layer 5"><path class="cls-1" d="M1004.06,74.28S996.86,70,989.65,65c-31.51-21.88-96.42-33.64-144.24-20-7,2-18,5.41-20,6C726.77,79.76,700.89,64.91,657.1,44c10.17-3.06,21.77-4.87,32.8-5.92a272.2,272.2,0,0,1,56.57.69c10.61,1.2,25.4,2.39,35.83,1.23l14.28-3-9.2,1.15A179,179,0,0,1,739.23,36c-10.28-1.71-25.62-2.09-36.06-2-17.66.16-34.32.73-50.81,6.29a186.68,186.68,0,0,1-30-21.06L601,.86h0L600,0l-1,.86h0L577.65,19.23a186.68,186.68,0,0,1-30,21.06c-16.49-5.56-33.15-6.13-50.81-6.29-10.44-.09-25.78.29-36.06,2a179,179,0,0,1-48.15,2.15L403.42,37l14.28,3c10.43,1.16,25.22,0,35.83-1.23a272.2,272.2,0,0,1,56.57-.69c11,1.05,22.63,2.86,32.8,5.92-43.79,20.91-69.67,35.76-168.28,7-2-.59-13-4-20-6-47.82-13.64-112.73-1.88-144.24,20-7.21,5-14.41,9.28-14.41,9.28C76.13,29,0,80,0,80a11.5,11.5,0,0,0,1.93-.82C40.05,61.27,88.41,55.44,133.21,61a207.93,207.93,0,0,1,46.63,11.39c17.43,6.44,39.62,13.44,70.08,12.63,23.7-.63,48.51-4.66,70.2-14.22L344.57,60,305.13,73c-26.05,8.21-67.38,12.44-106.71,2,54.7-27.81,98-40.33,165.19-23,0,0,44.13,13.73,69.46,17.25,39,5.41,82.34-4.14,115.84-22.25,17.78,6.45,32.24,18.89,51.09,35,18.85-16.11,33.31-28.55,51.09-35C684.59,65.11,728,74.66,766.93,69.25,792.26,65.73,836.39,52,836.39,52c67.22-17.38,110.49-4.86,165.19,23-39.33,10.49-80.66,6.26-106.71-2L855.43,60l24.45,10.79c21.69,9.56,46.5,13.59,70.2,14.22,30.46.81,52.65-6.19,70.08-12.63A207.93,207.93,0,0,1,1066.79,61c44.8-5.55,93.16.28,131.28,18.19A11.5,11.5,0,0,0,1200,80S1123.87,29,1004.06,74.28ZM627,51.78,600,68,573,51.78A133.89,133.89,0,0,0,555,43a179.47,179.47,0,0,0,38.82-33L600,3l6.19,7A179.47,179.47,0,0,0,645,43,133.89,133.89,0,0,0,627,51.78Z"/></g></g></svg>