<svg xmlns="http://www.w3.org/2000/svg" viewBox="0 0 1200 89.02"><defs><style>.cls-1{fill:#af80d1;}</style></defs><g id="Layer_2" data-name="Layer 2"><g id="Layer_5" data-name="Layer 5"><path class="cls-1" d="M1198,74l-7.38-4.64c-.23-.14-.46-.31-.7-.44C1137.65,41,1083.48,41,1031.25,63.18l-5,2.69a154.86,154.86,0,0,1-22.81,8.41l-2.32-2.51-12.49-8.69C957.13,41.2,916.49,33.86,878,37c-18.48,1.51-65.7,15.09-69.72,16.55a187.07,187.07,0,0,1-144.59-7.29,153.84,153.84,0,0,1,76.69-3.13,102.16,102.16,0,0,0,51.15-1.94l.61-.19,4.09-4-9.18,1.15c-20.45,1.9-40.9-1-52.26-3.18a158.46,158.46,0,0,0-31-3,165.48,165.48,0,0,0-51.51,8.28,186.28,186.28,0,0,1-30-21.06L600,0V.06L577.69,19.29a186.28,186.28,0,0,1-30,21.06,165.48,165.48,0,0,0-51.51-8.28,159.23,159.23,0,0,0-31,3c-11.36,2.16-31.81,5.08-52.26,3.18l-9.18-1.15,4.09,4,.61.19a102,102,0,0,0,51.15,1.94,153.74,153.74,0,0,1,76.69,3.14A187.16,187.16,0,0,1,391.7,53.62c-4-1.47-51.24-15-69.72-16.56-38.47-3.13-79.11,4.2-110.56,26.08l-12.49,8.69-2.32,2.51a153.73,153.73,0,0,1-22.81-8.41l-5.05-2.69C116.52,41.06,62.35,41.06,10.12,69c-.24.13-.47.3-.7.44L2,74.06l-2,5,2.93.18c48.24-22.7,102.73-25.59,154.48-12.18,0,0,97.1,41,153.09,11l28.85-11-2-3-31.69,9c-26,8.21-67.26,12.44-106.53,2C253.7,47.2,299.85,35.68,367,53.06c0,0,41.11,12.73,66.39,16.25A181.44,181.44,0,0,0,544.67,49.12C562.41,55.56,581.18,66,600,82.06l.44-.43c18.67-15.9,37.29-26.18,54.89-32.58a181.38,181.38,0,0,0,111.33,20.2C791.94,65.73,833.05,53,833.05,53c67.1-17.38,113.25-5.86,167.86,22-39.27,10.49-80.53,6.26-106.53-2l-31.69-9-2,3L889.5,78c56,30,153.09-11,153.09-11,51.75-13.41,106.24-10.53,154.48,12.18L1200,79ZM627,51.78,600,68.06l-27-16.22a134,134,0,0,0-18-8.8,179.35,179.35,0,0,0,38.75-33l6.18-7V3l6.18,7a179.35,179.35,0,0,0,38.75,33A134,134,0,0,0,627,51.78Z"/></g></g></svg>