<svg width="25" height="25" viewBox="0 0 25 25" fill="none" xmlns="http://www.w3.org/2000/svg">
<path fill-rule="evenodd" clip-rule="evenodd" d="M2.48092 12.5C2.48109 10.5756 3.03232 8.69206 4.06844 7.07548C5.10456 5.4589 6.58157 4.17793 8.32224 3.38627C10.0629 2.5946 11.9933 2.32588 13.8818 2.61234C15.7702 2.8988 17.5366 3.72828 18.9688 5.00124C20.4011 6.2742 21.4384 7.93657 21.9563 9.78889C22.4743 11.6412 22.4508 13.6048 21.8887 15.444C21.3267 17.2832 20.25 18.9199 18.7877 20.1577C17.3254 21.3956 15.5398 22.1819 13.645 22.4225V15H16.126C16.4549 15 16.7705 14.8683 17.0031 14.6339C17.2357 14.3995 17.3664 14.0815 17.3664 13.75C17.3664 13.4185 17.2357 13.1005 17.0031 12.8661C16.7705 12.6317 16.4549 12.5 16.126 12.5H13.645V10C13.645 9.66848 13.7757 9.35054 14.0084 9.11612C14.241 8.8817 14.5565 8.75 14.8855 8.75H15.5057C15.8347 8.75 16.1502 8.6183 16.3829 8.38388C16.6155 8.14946 16.7462 7.83152 16.7462 7.5C16.7462 7.16848 16.6155 6.85054 16.3829 6.61612C16.1502 6.3817 15.8347 6.25 15.5057 6.25H14.8855C13.8985 6.25 12.952 6.64509 12.2541 7.34835C11.5562 8.05161 11.1641 9.00544 11.1641 10V12.5H8.68321C8.35422 12.5 8.0387 12.6317 7.80607 12.8661C7.57344 13.1005 7.44275 13.4185 7.44275 13.75C7.44275 14.0815 7.57344 14.3995 7.80607 14.6339C8.0387 14.8683 8.35422 15 8.68321 15H11.1641V22.4225C8.76594 22.1178 6.56056 20.9416 4.96184 19.1147C3.36311 17.2878 2.48096 14.9358 2.48092 12.5ZM12.4046 25C19.2556 25 24.8092 19.4037 24.8092 12.5C24.8092 5.59625 19.2556 0 12.4046 0C5.55353 0 0 5.59625 0 12.5C0 19.4037 5.55353 25 12.4046 25Z" fill="#91D2CE"/>
</svg>
