<svg width="25" height="25" viewBox="0 0 25 25" fill="none" xmlns="http://www.w3.org/2000/svg">
<path d="M7.19466 0H17.6145C21.584 0 24.8092 3.25 24.8092 7.25V17.75C24.8092 19.6728 24.0512 21.5169 22.7019 22.8765C21.3526 24.2362 19.5226 25 17.6145 25H7.19466C3.22519 25 0 21.75 0 17.75V7.25C0 5.32718 0.758006 3.48311 2.10727 2.12348C3.45653 0.763837 5.28652 0 7.19466 0ZM6.94656 2.5C5.7622 2.5 4.62635 2.97411 3.78887 3.81802C2.9514 4.66193 2.48092 5.80653 2.48092 7V18C2.48092 20.4875 4.47805 22.5 6.94656 22.5H17.8626C19.047 22.5 20.1828 22.0259 21.0203 21.182C21.8578 20.3381 22.3282 19.1935 22.3282 18V7C22.3282 4.5125 20.3311 2.5 17.8626 2.5H6.94656ZM18.917 4.375C19.3282 4.375 19.7226 4.53962 20.0134 4.83265C20.3042 5.12567 20.4676 5.5231 20.4676 5.9375C20.4676 6.3519 20.3042 6.74933 20.0134 7.04235C19.7226 7.33538 19.3282 7.5 18.917 7.5C18.5057 7.5 18.1114 7.33538 17.8206 7.04235C17.5298 6.74933 17.3664 6.3519 17.3664 5.9375C17.3664 5.5231 17.5298 5.12567 17.8206 4.83265C18.1114 4.53962 18.5057 4.375 18.917 4.375ZM12.4046 6.25C14.0495 6.25 15.6271 6.90848 16.7903 8.08058C17.9534 9.25269 18.6069 10.8424 18.6069 12.5C18.6069 14.1576 17.9534 15.7473 16.7903 16.9194C15.6271 18.0915 14.0495 18.75 12.4046 18.75C10.7596 18.75 9.18205 18.0915 8.0189 16.9194C6.85574 15.7473 6.20229 14.1576 6.20229 12.5C6.20229 10.8424 6.85574 9.25269 8.0189 8.08058C9.18205 6.90848 10.7596 6.25 12.4046 6.25ZM12.4046 8.75C11.4176 8.75 10.4711 9.14509 9.77317 9.84835C9.07528 10.5516 8.68321 11.5054 8.68321 12.5C8.68321 13.4946 9.07528 14.4484 9.77317 15.1517C10.4711 15.8549 11.4176 16.25 12.4046 16.25C13.3915 16.25 14.3381 15.8549 15.036 15.1517C15.7339 14.4484 16.126 13.4946 16.126 12.5C16.126 11.5054 15.7339 10.5516 15.036 9.84835C14.3381 9.14509 13.3915 8.75 12.4046 8.75Z" fill="#91D2CE"/>
</svg>
